<?xml version="1.0" encoding="utf-8"?>
<!-- Generator: Adobe Illustrator 25.2.3, SVG Export Plug-In . SVG Version: 6.00 Build 0)  -->
<svg version="1.0" xmlns="http://www.w3.org/2000/svg" xmlns:xlink="http://www.w3.org/1999/xlink" x="0px" y="0px"
	 viewBox="0 0 32 32" style="enable-background:new 0 0 32 32;" xml:space="preserve">
<style type="text/css">
	.st0{display:none;}
	.st1{display:inline;fill:#FFFFFF;}
	.st2{fill:#FFFFFF;}
</style>
<g id="Layer_1" class="st0">
	<path class="st1" d="M7.5,3C4.47,3,2,5.47,2,8.5v17.01C2,28.53,4.47,31,7.5,31h17.01c3.02,0,5.5-2.47,5.5-5.5V8.5
		c0-3.02-2.47-5.5-5.5-5.5H7.5z M7.5,5.55h17.01c1.66,0,2.95,1.29,2.95,2.95v17.01c0,1.66-1.29,2.95-2.95,2.95H7.5
		c-1.66,0-2.95-1.29-2.95-2.95V8.5C4.55,6.84,5.84,5.55,7.5,5.55L7.5,5.55z M24.31,8.24c-0.29,0-0.57,0.09-0.8,0.27
		c-0.55,0.44-0.65,1.24-0.21,1.79c0.44,0.55,1.24,0.65,1.79,0.21c0.55-0.44,0.64-1.24,0.21-1.79C25.06,8.42,24.7,8.25,24.31,8.24
		L24.31,8.24z M15.94,9.3c-4.31,0-7.83,3.52-7.83,7.83c0,4.31,3.52,7.83,7.83,7.83c4.31,0,7.83-3.52,7.83-7.83
		C23.77,12.82,20.25,9.3,15.94,9.3L15.94,9.3z M15.94,11.84c2.93,0,5.28,2.35,5.28,5.29c0,2.93-2.35,5.28-5.28,5.28
		c-2.93,0-5.28-2.35-5.28-5.28C10.65,14.2,13,11.84,15.94,11.84L15.94,11.84z M15.94,11.84"/>
	<path class="st1" d="M5.31,26.44v0.25h0.51v-0.25H5.31z M6.58,26.44v0.25h0.51v-0.25H6.58z M7.86,26.44v0.25h0.51v-0.25H7.86z
		 M9.13,26.44v0.25h0.51v-0.25H9.13z M10.4,26.44v0.25h0.51v-0.25H10.4z M11.67,26.44v0.25h0.51v-0.25H11.67z M12.95,26.44v0.25
		h0.51v-0.25H12.95z M14.22,26.44v0.25h0.51v-0.25H14.22z M15.49,26.44v0.25H16v-0.25H15.49z M16.77,26.44v0.25h0.51v-0.25H16.77z
		 M18.04,26.44v0.25h0.51v-0.25H18.04z M19.31,26.44v0.25h0.51v-0.25H19.31z M20.59,26.44v0.25h0.51v-0.25H20.59z M21.86,26.44v0.25
		h0.51v-0.25H21.86z M23.13,26.44v0.25h0.51v-0.25H23.13z M24.4,26.44v0.25h0.51v-0.25H24.4z M25.68,26.44v0.25h0.51v-0.25H25.68z
		 M25.68,26.44"/>
</g>
<g id="Layer_2" class="st0">
	<path class="st1" d="M29.45,7.71l-1.12,0.06c0.66-0.5,1.27-1.11,1.44-1.76c0.4-1.57-0.53-1.2-0.53-1.2L26.4,5.58
		c-1.19-1.18-2.79-1.84-4.47-1.84h-0.01c-3.5,0-6.34,2.84-6.34,6.34c0,0.44,0.05,0.88,0.14,1.32c-0.91-0.01-3.36-0.19-6.45-1.62
		C5.36,7.98,4.49,6.24,4.49,6.24s-1.22-1.7-1.81,1.88c-0.32,1.94,0.94,3.8,1.82,4.84C3.53,12.7,3.12,12.4,3.12,12.4
		s-1.86-0.96-0.75,2.5c0.71,2.21,3.3,3.32,4.42,3.7c-0.84,0.02-1.24-0.11-1.24-0.11S3.56,18.19,5.62,21
		c1.21,1.66,3.61,1.98,4.86,2.02c-3.49,2.56-4.3,1.97-5.75,1.85c-0.93-0.08-1.69,0.92,0.13,1.97c3.97,2.29,13.39,2.38,18.66-4.29
		c4.46-5.64,4.87-10.74,4.85-12.34c0.59-0.32,1.12-0.73,1.36-1.23C30.44,7.54,29.45,7.71,29.45,7.71z"/>
</g>
<g id="Layer_3">
	<path class="st2" d="M25.71,6.24c-1.81-0.85-3.75-1.46-5.77-1.81c-0.25,0.45-0.54,1.05-0.74,1.53c-2.15-0.32-4.28-0.32-6.4,0
		c-0.2-0.48-0.5-1.09-0.75-1.53c-2.03,0.35-3.96,0.97-5.78,1.82c-3.65,5.52-4.64,10.9-4.15,16.21c2.42,1.81,4.77,2.91,7.08,3.63
		c0.57-0.78,1.08-1.62,1.52-2.5c-0.83-0.32-1.63-0.71-2.39-1.16c0.2-0.15,0.4-0.3,0.59-0.46c4.6,2.15,9.6,2.15,14.15,0
		c0.19,0.16,0.39,0.31,0.59,0.46c-0.76,0.46-1.56,0.85-2.39,1.16c0.44,0.88,0.94,1.71,1.52,2.5c2.31-0.72,4.66-1.82,7.08-3.63
		C30.45,16.3,28.88,10.96,25.71,6.24z M11.35,19.18c-1.38,0-2.51-1.29-2.51-2.86c0-1.57,1.11-2.86,2.51-2.86
		c1.41,0,2.54,1.29,2.51,2.86C13.87,17.89,12.76,19.18,11.35,19.18z M20.65,19.18c-1.38,0-2.51-1.29-2.51-2.86
		c0-1.57,1.11-2.86,2.51-2.86c1.41,0,2.54,1.29,2.51,2.86C23.16,17.89,22.05,19.18,20.65,19.18z"/>
</g>
</svg>
