<?xml version="1.0" encoding="utf-8"?>
<!-- Generator: Adobe Illustrator 25.2.3, SVG Export Plug-In . SVG Version: 6.00 Build 0)  -->
<svg version="1.0" id="Layer_1" xmlns="http://www.w3.org/2000/svg" xmlns:xlink="http://www.w3.org/1999/xlink" x="0px" y="0px"
	 viewBox="0 0 32 32" style="enable-background:new 0 0 32 32;" xml:space="preserve">
<style type="text/css">
	.st0{fill:#FFFFFF;}
</style>
<path class="st0" d="M7.5,3C4.47,3,2,5.47,2,8.5v17.01C2,28.53,4.47,31,7.5,31h17.01c3.02,0,5.5-2.47,5.5-5.5V8.5
	c0-3.02-2.47-5.5-5.5-5.5H7.5z M7.5,5.55h17.01c1.66,0,2.95,1.29,2.95,2.95v17.01c0,1.66-1.29,2.95-2.95,2.95H7.5
	c-1.66,0-2.95-1.29-2.95-2.95V8.5C4.55,6.84,5.84,5.55,7.5,5.55L7.5,5.55z M24.31,8.24c-0.29,0-0.57,0.09-0.8,0.27
	c-0.55,0.44-0.65,1.24-0.21,1.79c0.44,0.55,1.24,0.65,1.79,0.21c0.55-0.44,0.64-1.24,0.21-1.79C25.06,8.42,24.7,8.25,24.31,8.24
	L24.31,8.24z M15.94,9.3c-4.31,0-7.83,3.52-7.83,7.83c0,4.31,3.52,7.83,7.83,7.83c4.31,0,7.83-3.52,7.83-7.83
	C23.77,12.82,20.25,9.3,15.94,9.3L15.94,9.3z M15.94,11.84c2.93,0,5.28,2.35,5.28,5.29c0,2.93-2.35,5.28-5.28,5.28
	c-2.93,0-5.28-2.35-5.28-5.28C10.65,14.2,13,11.84,15.94,11.84L15.94,11.84z M15.94,11.84"/>
<path class="st0" d="M5.31,26.44v0.25h0.51v-0.25H5.31z M6.58,26.44v0.25h0.51v-0.25H6.58z M7.86,26.44v0.25h0.51v-0.25H7.86z
	 M9.13,26.44v0.25h0.51v-0.25H9.13z M10.4,26.44v0.25h0.51v-0.25H10.4z M11.67,26.44v0.25h0.51v-0.25H11.67z M12.95,26.44v0.25h0.51
	v-0.25H12.95z M14.22,26.44v0.25h0.51v-0.25H14.22z M15.49,26.44v0.25H16v-0.25H15.49z M16.77,26.44v0.25h0.51v-0.25H16.77z
	 M18.04,26.44v0.25h0.51v-0.25H18.04z M19.31,26.44v0.25h0.51v-0.25H19.31z M20.59,26.44v0.25h0.51v-0.25H20.59z M21.86,26.44v0.25
	h0.51v-0.25H21.86z M23.13,26.44v0.25h0.51v-0.25H23.13z M24.4,26.44v0.25h0.51v-0.25H24.4z M25.68,26.44v0.25h0.51v-0.25H25.68z
	 M25.68,26.44"/>
</svg>
