<?xml version="1.0" encoding="utf-8"?>
<!-- Generator: Adobe Illustrator 25.2.3, SVG Export Plug-In . SVG Version: 6.00 Build 0)  -->
<svg version="1.0" id="Layer_1" xmlns="http://www.w3.org/2000/svg" xmlns:xlink="http://www.w3.org/1999/xlink" x="0px" y="0px"
	 viewBox="0 0 293.8 293.7" style="enable-background:new 0 0 293.8 293.7;" xml:space="preserve">
<style type="text/css">
	.st0{fill:#FFFFFF;}
	.st1{fill:#8247E5;}
</style>
<circle class="st0" cx="146.9" cy="146.8" r="146.8"/>
<g id="Mask_Group_3">
	<path id="Path_151" class="st1" d="M206.7,107.6c-4.6-2.6-10.2-2.6-14.7,0l-33.8,19.6l-23,12.8l-33.8,19.6
		c-4.6,2.6-10.2,2.6-14.7,0l-26.9-15.3c-4.4-2.6-7.2-7.2-7.4-12.4v-30.3c-0.1-5.2,2.8-10,7.4-12.4l26.4-14.9
		c4.6-2.6,10.2-2.6,14.7,0l26.4,14.9c4.4,2.6,7.2,7.2,7.4,12.4v19.6l23-13.2V88.4c0.1-5.2-2.8-10-7.4-12.4l-49-28.1
		c-4.6-2.6-10.2-2.6-14.7,0L36.8,76.1c-4.6,2.4-7.4,7.2-7.4,12.4v56.7c-0.1,5.2,2.8,10,7.4,12.4l49.9,28.1c4.6,2.6,10.2,2.6,14.7,0
		l33.8-19.2l23-13.2L192,134c4.6-2.6,10.2-2.6,14.7,0l26.4,14.9c4.4,2.6,7.2,7.2,7.4,12.4v30.3c0.1,5.2-2.8,10-7.4,12.4l-26.4,15.3
		c-4.6,2.6-10.2,2.6-14.7,0l-26.4-14.9c-4.4-2.6-7.2-7.2-7.4-12.4v-19.6l-23,13.2v19.6c-0.1,5.2,2.8,10,7.4,12.4l49.9,28.1
		c4.6,2.6,10.2,2.6,14.7,0l49.9-28.1c4.4-2.6,7.2-7.2,7.4-12.4v-56.7c0.1-5.2-2.8-10-7.4-12.4L206.7,107.6z"/>
</g>
</svg>
